<mxfile host="app.diagrams.net" modified="2023-02-16T11:54:26.339Z" agent="5.0 (Windows NT 10.0; Win64; x64) AppleWebKit/537.36 (KHTML, like Gecko) Chrome/109.0.0.0 Safari/537.36" etag="lMF17Cmrespm1ZFoA29v" version="20.8.20" type="github" pages="2">
  <diagram name="Trang-1" id="cGAmZR6POqPctWYevKui">
    <mxGraphModel dx="1050" dy="619" grid="1" gridSize="10" guides="1" tooltips="1" connect="1" arrows="1" fold="1" page="1" pageScale="1" pageWidth="827" pageHeight="700" math="0" shadow="0">
      <root>
        <mxCell id="0" />
        <mxCell id="1" parent="0" />
        <mxCell id="dByblNMPsCmnlJzkaXoU-1" value="React/Angular/Vue&lt;br style=&quot;font-size: 20px;&quot;&gt;(in program use React)" style="rounded=0;whiteSpace=wrap;html=1;fontSize=20;" parent="1" vertex="1">
          <mxGeometry x="260" y="130" width="320" height="80" as="geometry" />
        </mxCell>
        <mxCell id="dByblNMPsCmnlJzkaXoU-2" value="Nodejs(Typescript)" style="rounded=0;whiteSpace=wrap;html=1;fontSize=18;" parent="1" vertex="1">
          <mxGeometry x="150" y="300" width="170" height="60" as="geometry" />
        </mxCell>
        <mxCell id="dByblNMPsCmnlJzkaXoU-4" value="Nodejs(Typescript)" style="rounded=0;whiteSpace=wrap;html=1;fontSize=18;" parent="1" vertex="1">
          <mxGeometry x="480" y="300" width="170" height="60" as="geometry" />
        </mxCell>
        <mxCell id="dByblNMPsCmnlJzkaXoU-5" value="RabbitMQ" style="rounded=0;whiteSpace=wrap;html=1;fontSize=20;" parent="1" vertex="1">
          <mxGeometry x="264" y="410" width="316" height="130" as="geometry" />
        </mxCell>
        <mxCell id="dByblNMPsCmnlJzkaXoU-6" value="" style="endArrow=classic;startArrow=classic;html=1;rounded=0;entryX=0.066;entryY=1.063;entryDx=0;entryDy=0;entryPerimeter=0;" parent="1" target="dByblNMPsCmnlJzkaXoU-2" edge="1">
          <mxGeometry width="50" height="50" relative="1" as="geometry">
            <mxPoint x="160" y="480" as="sourcePoint" />
            <mxPoint x="440" y="300" as="targetPoint" />
          </mxGeometry>
        </mxCell>
        <mxCell id="dByblNMPsCmnlJzkaXoU-7" value="" style="endArrow=classic;startArrow=classic;html=1;rounded=0;entryX=0.066;entryY=1.063;entryDx=0;entryDy=0;entryPerimeter=0;" parent="1" edge="1">
          <mxGeometry width="50" height="50" relative="1" as="geometry">
            <mxPoint x="640" y="476" as="sourcePoint" />
            <mxPoint x="641" y="360" as="targetPoint" />
          </mxGeometry>
        </mxCell>
        <mxCell id="dByblNMPsCmnlJzkaXoU-8" value="Frontend" style="text;strokeColor=none;align=center;fillColor=none;html=1;verticalAlign=middle;whiteSpace=wrap;rounded=0;fontSize=15;" parent="1" vertex="1">
          <mxGeometry x="370" y="90" width="110" height="30" as="geometry" />
        </mxCell>
        <mxCell id="dByblNMPsCmnlJzkaXoU-10" value="MySQL" style="text;strokeColor=none;align=center;fillColor=none;html=1;verticalAlign=middle;whiteSpace=wrap;rounded=0;fontSize=15;" parent="1" vertex="1">
          <mxGeometry x="110" y="480" width="110" height="30" as="geometry" />
        </mxCell>
        <mxCell id="dByblNMPsCmnlJzkaXoU-11" value="Admin" style="text;strokeColor=none;align=center;fillColor=none;html=1;verticalAlign=middle;whiteSpace=wrap;rounded=0;" parent="1" vertex="1">
          <mxGeometry x="130" y="260" width="110" height="30" as="geometry" />
        </mxCell>
        <mxCell id="dByblNMPsCmnlJzkaXoU-12" value="Main" style="text;strokeColor=none;align=center;fillColor=none;html=1;verticalAlign=middle;whiteSpace=wrap;rounded=0;" parent="1" vertex="1">
          <mxGeometry x="520" y="260" width="110" height="30" as="geometry" />
        </mxCell>
        <mxCell id="dByblNMPsCmnlJzkaXoU-13" value="" style="endArrow=classic;startArrow=classic;html=1;rounded=0;exitX=0.616;exitY=-0.017;exitDx=0;exitDy=0;exitPerimeter=0;entryX=0.429;entryY=0.992;entryDx=0;entryDy=0;entryPerimeter=0;" parent="1" source="dByblNMPsCmnlJzkaXoU-2" target="dByblNMPsCmnlJzkaXoU-1" edge="1">
          <mxGeometry width="50" height="50" relative="1" as="geometry">
            <mxPoint x="390" y="350" as="sourcePoint" />
            <mxPoint x="440" y="300" as="targetPoint" />
          </mxGeometry>
        </mxCell>
        <mxCell id="dByblNMPsCmnlJzkaXoU-14" value="" style="endArrow=classic;startArrow=classic;html=1;rounded=0;exitX=0.336;exitY=-0.03;exitDx=0;exitDy=0;exitPerimeter=0;" parent="1" source="dByblNMPsCmnlJzkaXoU-4" edge="1">
          <mxGeometry width="50" height="50" relative="1" as="geometry">
            <mxPoint x="265" y="309" as="sourcePoint" />
            <mxPoint x="400" y="210" as="targetPoint" />
          </mxGeometry>
        </mxCell>
        <mxCell id="dByblNMPsCmnlJzkaXoU-15" value="MongoDB" style="text;strokeColor=none;align=center;fillColor=none;html=1;verticalAlign=middle;whiteSpace=wrap;rounded=0;fontSize=15;" parent="1" vertex="1">
          <mxGeometry x="590" y="480" width="110" height="30" as="geometry" />
        </mxCell>
      </root>
    </mxGraphModel>
  </diagram>
  <diagram id="B-6xNn2JfSDs3VF3crzp" name="Trang-2">
    <mxGraphModel dx="1050" dy="619" grid="1" gridSize="10" guides="1" tooltips="1" connect="1" arrows="1" fold="1" page="1" pageScale="1" pageWidth="827" pageHeight="1169" math="0" shadow="0">
      <root>
        <mxCell id="0" />
        <mxCell id="1" parent="0" />
        <mxCell id="vPI-WBlQtops1NF1pk0h-1" value="Classname" style="swimlane;fontStyle=0;childLayout=stackLayout;horizontal=1;startSize=26;fillColor=none;horizontalStack=0;resizeParent=1;resizeParentMax=0;resizeLast=0;collapsible=1;marginBottom=0;" vertex="1" parent="1">
          <mxGeometry x="120" y="30" width="140" height="104" as="geometry" />
        </mxCell>
        <mxCell id="vPI-WBlQtops1NF1pk0h-2" value="+ field: type" style="text;strokeColor=none;fillColor=none;align=left;verticalAlign=top;spacingLeft=4;spacingRight=4;overflow=hidden;rotatable=0;points=[[0,0.5],[1,0.5]];portConstraint=eastwest;" vertex="1" parent="vPI-WBlQtops1NF1pk0h-1">
          <mxGeometry y="26" width="140" height="26" as="geometry" />
        </mxCell>
        <mxCell id="vPI-WBlQtops1NF1pk0h-3" value="+ field: type" style="text;strokeColor=none;fillColor=none;align=left;verticalAlign=top;spacingLeft=4;spacingRight=4;overflow=hidden;rotatable=0;points=[[0,0.5],[1,0.5]];portConstraint=eastwest;" vertex="1" parent="vPI-WBlQtops1NF1pk0h-1">
          <mxGeometry y="52" width="140" height="26" as="geometry" />
        </mxCell>
        <mxCell id="vPI-WBlQtops1NF1pk0h-4" value="+ field: type" style="text;strokeColor=none;fillColor=none;align=left;verticalAlign=top;spacingLeft=4;spacingRight=4;overflow=hidden;rotatable=0;points=[[0,0.5],[1,0.5]];portConstraint=eastwest;" vertex="1" parent="vPI-WBlQtops1NF1pk0h-1">
          <mxGeometry y="78" width="140" height="26" as="geometry" />
        </mxCell>
        <mxCell id="vPI-WBlQtops1NF1pk0h-5" value="Classname" style="swimlane;fontStyle=0;childLayout=stackLayout;horizontal=1;startSize=26;fillColor=none;horizontalStack=0;resizeParent=1;resizeParentMax=0;resizeLast=0;collapsible=1;marginBottom=0;" vertex="1" parent="1">
          <mxGeometry x="120" y="230" width="140" height="104" as="geometry" />
        </mxCell>
        <mxCell id="vPI-WBlQtops1NF1pk0h-6" value="+ field: type" style="text;strokeColor=none;fillColor=none;align=left;verticalAlign=top;spacingLeft=4;spacingRight=4;overflow=hidden;rotatable=0;points=[[0,0.5],[1,0.5]];portConstraint=eastwest;" vertex="1" parent="vPI-WBlQtops1NF1pk0h-5">
          <mxGeometry y="26" width="140" height="26" as="geometry" />
        </mxCell>
        <mxCell id="vPI-WBlQtops1NF1pk0h-7" value="+ field: type" style="text;strokeColor=none;fillColor=none;align=left;verticalAlign=top;spacingLeft=4;spacingRight=4;overflow=hidden;rotatable=0;points=[[0,0.5],[1,0.5]];portConstraint=eastwest;" vertex="1" parent="vPI-WBlQtops1NF1pk0h-5">
          <mxGeometry y="52" width="140" height="26" as="geometry" />
        </mxCell>
        <mxCell id="vPI-WBlQtops1NF1pk0h-8" value="+ field: type" style="text;strokeColor=none;fillColor=none;align=left;verticalAlign=top;spacingLeft=4;spacingRight=4;overflow=hidden;rotatable=0;points=[[0,0.5],[1,0.5]];portConstraint=eastwest;" vertex="1" parent="vPI-WBlQtops1NF1pk0h-5">
          <mxGeometry y="78" width="140" height="26" as="geometry" />
        </mxCell>
        <mxCell id="vPI-WBlQtops1NF1pk0h-9" value="Classname" style="swimlane;fontStyle=0;childLayout=stackLayout;horizontal=1;startSize=26;fillColor=none;horizontalStack=0;resizeParent=1;resizeParentMax=0;resizeLast=0;collapsible=1;marginBottom=0;" vertex="1" parent="1">
          <mxGeometry x="130" y="470" width="140" height="104" as="geometry" />
        </mxCell>
        <mxCell id="vPI-WBlQtops1NF1pk0h-10" value="+ field: type" style="text;strokeColor=none;fillColor=none;align=left;verticalAlign=top;spacingLeft=4;spacingRight=4;overflow=hidden;rotatable=0;points=[[0,0.5],[1,0.5]];portConstraint=eastwest;" vertex="1" parent="vPI-WBlQtops1NF1pk0h-9">
          <mxGeometry y="26" width="140" height="26" as="geometry" />
        </mxCell>
        <mxCell id="vPI-WBlQtops1NF1pk0h-11" value="+ field: type" style="text;strokeColor=none;fillColor=none;align=left;verticalAlign=top;spacingLeft=4;spacingRight=4;overflow=hidden;rotatable=0;points=[[0,0.5],[1,0.5]];portConstraint=eastwest;" vertex="1" parent="vPI-WBlQtops1NF1pk0h-9">
          <mxGeometry y="52" width="140" height="26" as="geometry" />
        </mxCell>
        <mxCell id="vPI-WBlQtops1NF1pk0h-12" value="+ field: type" style="text;strokeColor=none;fillColor=none;align=left;verticalAlign=top;spacingLeft=4;spacingRight=4;overflow=hidden;rotatable=0;points=[[0,0.5],[1,0.5]];portConstraint=eastwest;" vertex="1" parent="vPI-WBlQtops1NF1pk0h-9">
          <mxGeometry y="78" width="140" height="26" as="geometry" />
        </mxCell>
        <mxCell id="vPI-WBlQtops1NF1pk0h-13" value="1" style="endArrow=open;html=1;endSize=12;startArrow=diamondThin;startSize=14;startFill=0;edgeStyle=orthogonalEdgeStyle;align=left;verticalAlign=bottom;rounded=0;exitX=1;exitY=0.5;exitDx=0;exitDy=0;entryX=1.026;entryY=-0.008;entryDx=0;entryDy=0;entryPerimeter=0;" edge="1" parent="1" source="vPI-WBlQtops1NF1pk0h-3" target="vPI-WBlQtops1NF1pk0h-8">
          <mxGeometry x="-1" y="3" relative="1" as="geometry">
            <mxPoint x="330" y="320" as="sourcePoint" />
            <mxPoint x="320" y="280" as="targetPoint" />
            <Array as="points">
              <mxPoint x="340" y="95" />
              <mxPoint x="340" y="308" />
            </Array>
          </mxGeometry>
        </mxCell>
        <mxCell id="vPI-WBlQtops1NF1pk0h-15" value="1" style="endArrow=open;html=1;endSize=12;startArrow=diamondThin;startSize=14;startFill=0;edgeStyle=orthogonalEdgeStyle;align=left;verticalAlign=bottom;rounded=0;exitX=1;exitY=0.5;exitDx=0;exitDy=0;entryX=1.026;entryY=-0.008;entryDx=0;entryDy=0;entryPerimeter=0;" edge="1" parent="1">
          <mxGeometry x="-1" y="3" relative="1" as="geometry">
            <mxPoint x="260" y="331" as="sourcePoint" />
            <mxPoint x="264" y="544" as="targetPoint" />
            <Array as="points">
              <mxPoint x="340" y="331" />
              <mxPoint x="340" y="544" />
            </Array>
          </mxGeometry>
        </mxCell>
        <mxCell id="vPI-WBlQtops1NF1pk0h-16" value="Classname" style="swimlane;fontStyle=0;childLayout=stackLayout;horizontal=1;startSize=26;fillColor=none;horizontalStack=0;resizeParent=1;resizeParentMax=0;resizeLast=0;collapsible=1;marginBottom=0;" vertex="1" parent="1">
          <mxGeometry x="390" y="60" width="140" height="104" as="geometry" />
        </mxCell>
        <mxCell id="vPI-WBlQtops1NF1pk0h-17" value="+ field: type" style="text;strokeColor=none;fillColor=none;align=left;verticalAlign=top;spacingLeft=4;spacingRight=4;overflow=hidden;rotatable=0;points=[[0,0.5],[1,0.5]];portConstraint=eastwest;" vertex="1" parent="vPI-WBlQtops1NF1pk0h-16">
          <mxGeometry y="26" width="140" height="26" as="geometry" />
        </mxCell>
        <mxCell id="vPI-WBlQtops1NF1pk0h-18" value="+ field: type" style="text;strokeColor=none;fillColor=none;align=left;verticalAlign=top;spacingLeft=4;spacingRight=4;overflow=hidden;rotatable=0;points=[[0,0.5],[1,0.5]];portConstraint=eastwest;" vertex="1" parent="vPI-WBlQtops1NF1pk0h-16">
          <mxGeometry y="52" width="140" height="26" as="geometry" />
        </mxCell>
        <mxCell id="vPI-WBlQtops1NF1pk0h-19" value="+ field: type" style="text;strokeColor=none;fillColor=none;align=left;verticalAlign=top;spacingLeft=4;spacingRight=4;overflow=hidden;rotatable=0;points=[[0,0.5],[1,0.5]];portConstraint=eastwest;" vertex="1" parent="vPI-WBlQtops1NF1pk0h-16">
          <mxGeometry y="78" width="140" height="26" as="geometry" />
        </mxCell>
      </root>
    </mxGraphModel>
  </diagram>
</mxfile>
